<svg xmlns="http://www.w3.org/2000/svg" width="311" height="122" viewBox="0 0 311 122" fill="none"><path d="M108.51 42.01V59.87C108.51 60.97 107.63 61.82 106.56 61.82C105.49 61.82 104.64 60.97 104.64 59.87V42.01C104.64 40.94 105.49 40.06 106.56 40.06C107.63 40.06 108.51 40.95 108.51 42.01Z" fill="white"></path><path d="M134.45 42.01C134.45 43.08 133.6 43.93 132.53 43.93H124.94V59.87C124.94 60.97 124.09 61.82 123.02 61.82C121.95 61.82 121.07 60.97 121.07 59.87V43.93H113.51C112.44 43.93 111.56 43.08 111.56 42.01C111.56 40.94 112.44 40.06 113.51 40.06H132.53C133.59 40.06 134.45 40.95 134.45 42.01Z" fill="white"></path><path d="M174.31 42.81L167.51 57.71C166.38 60.21 163.85 61.82 161.11 61.82C158.34 61.82 155.84 60.2 154.68 57.71L147.88 42.81C147.45 41.83 147.88 40.71 148.86 40.25C149.84 39.82 150.99 40.25 151.42 41.23L158.22 56.1C158.74 57.23 159.87 57.96 161.12 57.96C162.34 57.96 163.47 57.23 163.98 56.1L170.78 41.23C171.24 40.25 172.36 39.83 173.34 40.25C174.31 40.7 174.73 41.83 174.31 42.81Z" fill="white"></path><path d="M199.87 59.08C200.3 60.06 199.87 61.21 198.89 61.64C198.65 61.76 198.37 61.82 198.1 61.82C197.37 61.82 196.67 61.39 196.33 60.69L189.56 45.79C189.04 44.66 187.88 43.96 186.66 43.96C185.41 43.96 184.28 44.66 183.76 45.79L176.96 60.69C176.53 61.67 175.38 62.09 174.4 61.63C173.42 61.2 173 60.05 173.46 59.07L180.23 44.2C181.39 41.7 183.89 40.06 186.66 40.06C189.4 40.06 191.93 41.71 193.06 44.2L199.87 59.08ZM190.15 54.82C190.15 56.74 188.6 58.29 186.68 58.29C184.76 58.29 183.21 56.74 183.21 54.82C183.21 52.9 184.76 51.35 186.68 51.35C188.6 51.34 190.15 52.9 190.15 54.82Z" fill="white"></path><path d="M223.4 59.87C223.4 60.97 222.52 61.82 221.45 61.82H205.02C203.95 61.82 203.1 60.97 203.1 59.87V42.01C203.1 40.94 203.95 40.06 205.02 40.06C206.09 40.06 206.97 40.94 206.97 42.01V57.95H221.45C222.52 57.95 223.4 58.81 223.4 59.87Z" fill="white"></path><path d="M247.05 59.87C247.05 60.97 246.17 61.82 245.1 61.82H228.67C227.6 61.82 226.75 60.97 226.75 59.87V42.01C226.75 40.94 227.6 40.06 228.67 40.06C229.74 40.06 230.62 40.94 230.62 42.01V57.95H245.1C246.16 57.95 247.05 58.81 247.05 59.87Z" fill="white"></path><path d="M273.29 42.01C273.29 43.08 272.41 43.93 271.34 43.93H252.32C251.25 43.93 250.4 43.08 250.4 42.01C250.4 40.94 251.25 40.06 252.32 40.06H271.34C272.4 40.06 273.29 40.95 273.29 42.01ZM273.29 50.94C273.29 52.01 272.41 52.89 271.34 52.89H252.32C251.25 52.89 250.4 52.01 250.4 50.94C250.4 49.87 251.25 49.02 252.32 49.02H271.34C272.4 49.02 273.29 49.88 273.29 50.94ZM273.29 59.87C273.29 60.97 272.41 61.82 271.34 61.82H252.32C251.25 61.82 250.4 60.97 250.4 59.87C250.4 58.8 251.25 57.95 252.32 57.95H271.34C272.4 57.95 273.29 58.81 273.29 59.87Z" fill="white"></path><path d="M298.4 42.9L295.69 48.29C294.87 49.84 293.68 51.15 292.15 52.1C291.21 52.68 290.2 53.08 289.1 53.29V59.87C289.1 60.97 288.25 61.82 287.18 61.82C286.11 61.82 285.23 60.97 285.23 59.87V53.29C284.16 53.08 283.13 52.68 282.18 52.1C280.69 51.16 279.47 49.84 278.68 48.29L275.94 42.9C275.45 41.92 275.85 40.77 276.79 40.28C277.73 39.79 278.92 40.19 279.41 41.13L282.12 46.52C283.1 48.44 285.05 49.63 287.18 49.63C289.31 49.63 291.23 48.44 292.21 46.52L294.95 41.13C295.44 40.19 296.6 39.79 297.54 40.28C298.52 40.77 298.88 41.92 298.4 42.9Z" fill="white"></path><path d="M15.03 66.34C17.55 66.34 19.57 66.34 21.53 66.34C21.76 69.75 22.88 75.37 24.38 78.31C29.12 73.19 34.29 67.77 39.59 62.04L46.81 69.64C52.51 63.55 56.84 58.94 62.09 53.33C69.35 60.48 76.17 67.19 83.46 74.37C84.22 71.53 84.52 69.35 84.69 66.85C86.73 66.85 88.79 66.85 91.25 66.85C90.81 79.35 85.78 89.36 75.87 96.81C63.59 106.06 47.02 107.01 33.87 99.04C21.76 91.7 15.66 80.73 15.03 66.34ZM28.02 84.88C35.36 94.13 45.09 98.71 57.28 97.19C67.66 95.89 75.35 90.35 80.06 82.24C73.89 75.74 68.1 69.65 62.3 63.55C58.74 67.24 55.25 70.87 51.35 74.92L56.52 80.52C54.52 82.47 53.77 83.2 51.85 85.08C47.89 80.8 44 76.59 40.08 72.36C35.91 76.68 32.12 80.62 28.02 84.88ZM55.02 35.02C55.16 32.67 55.29 30.55 55.43 28.16C52.96 28.22 50.74 28.28 48.27 28.34C48.5 30.71 48.7 32.69 48.93 35.06C51.1 35.04 53.01 35.03 55.02 35.02ZM70.11 32.38C67.66 31.42 65.53 30.58 63.17 29.65C62.49 32.07 61.92 34.11 61.35 36.16C63.32 36.98 65.01 37.68 67.01 38.51C68.07 36.41 69.03 34.51 70.11 32.38ZM81.85 41.91C79.99 40.08 78.35 38.46 76.53 36.66C74.93 38.61 73.58 40.26 72.21 41.93C73.71 43.42 75.02 44.72 76.61 46.29C78.37 44.83 80.01 43.45 81.85 41.91ZM37.2 38.82C39.13 37.97 40.87 37.2 42.81 36.34C42.12 34.2 41.46 32.16 40.72 29.86C38.3 30.92 36.18 31.85 33.85 32.87C35.06 35.02 36.11 36.9 37.2 38.82ZM24.38 52.12C22.31 51.08 20.41 50.12 18.23 49.03C17.28 51.63 16.5 53.77 15.67 56.05C17.97 56.71 19.82 57.23 22.11 57.89C22.87 55.96 23.59 54.12 24.38 52.12ZM27.75 46.85C29.25 45.28 30.58 43.89 31.83 42.57C30.39 40.77 29.05 39.1 27.54 37.22C25.7 39.14 24.15 40.77 22.38 42.62C24.32 44.15 26.01 45.48 27.75 46.85ZM86.03 48.26C83.81 49.48 81.93 50.52 80.11 51.52C80.8 53.22 82.44 57.08 82.44 57.08C82.44 57.08 89.1 55.12 89 55.15C87.92 52.63 87 50.51 86.03 48.26Z" fill="url(#paint0_linear_2_2)"></path><path d="M146.52 84.36C146.52 87.9 143.65 90.76 140.12 90.76H126.86C125.79 90.76 124.91 89.91 124.91 88.81C124.91 87.74 125.79 86.89 126.86 86.89H140.12C141.52 86.89 142.65 85.76 142.65 84.36C142.65 82.96 141.52 81.83 140.12 81.83H130.03C126.49 81.83 123.63 78.93 123.63 75.43C123.63 71.89 126.49 69 130.03 69H143.29C144.36 69 145.24 69.88 145.24 70.95C145.24 72.02 144.36 72.87 143.29 72.87H130.03C128.63 72.87 127.5 74.03 127.5 75.43C127.5 76.8 128.63 77.96 130.03 77.96H140.12C143.65 77.95 146.52 80.82 146.52 84.36Z" fill="white"></path><path d="M153.13 79.88C153.13 84.21 156.21 86.89 161.12 86.89H162.64C165.17 86.89 167.24 86.19 168.64 84.85C169.43 84.12 170.65 84.12 171.38 84.91C172.11 85.67 172.11 86.89 171.32 87.65C169.19 89.69 166.2 90.76 162.63 90.76H161.11C157.51 90.76 154.5 89.66 152.36 87.59C151.35 86.61 150.56 85.43 150.04 84.08C149.52 82.77 149.25 81.37 149.25 79.87C149.25 78.41 149.52 76.97 150.04 75.69C150.56 74.35 151.35 73.16 152.36 72.15C154.49 70.08 157.51 68.98 161.11 68.98H162.63C166.23 68.98 169.24 70.08 171.38 72.15C172.14 72.91 172.14 74.13 171.41 74.89C170.68 75.65 169.43 75.68 168.67 74.92C167.27 73.58 165.2 72.85 162.64 72.85H161.12C156.2 72.87 153.13 75.58 153.13 79.88Z" fill="white"></path><path d="M198.81 70.95V88.81C198.81 89.91 197.96 90.76 196.89 90.76C195.82 90.76 194.94 89.91 194.94 88.81V82.07H179.79V88.81C179.79 89.91 178.94 90.76 177.87 90.76C176.8 90.76 175.92 89.91 175.92 88.81V70.95C175.92 69.88 176.8 69 177.87 69C178.94 69 179.79 69.88 179.79 70.95V78.2H194.94V70.95C194.94 69.88 195.82 69 196.89 69C197.96 69 198.81 69.88 198.81 70.95Z" fill="white"></path><path d="M226.6 75.7C227.12 76.98 227.39 78.41 227.39 79.88C227.39 81.37 227.12 82.78 226.6 84.09C226.08 85.43 225.29 86.62 224.28 87.6C222.15 89.67 219.13 90.77 215.53 90.77H214.01C210.41 90.77 207.4 89.67 205.26 87.6C204.25 86.62 203.46 85.44 202.91 84.09C202.42 82.78 202.15 81.38 202.15 79.88C202.15 78.42 202.42 76.98 202.91 75.7C203.46 74.36 204.25 73.17 205.26 72.16C207.39 70.09 210.41 68.99 214.01 68.99H215.53C219.13 68.99 222.14 70.09 224.28 72.16C225.29 73.17 226.08 74.36 226.6 75.7ZM223.52 79.88C223.52 75.58 220.44 72.87 215.53 72.87H214.01C209.07 72.87 206.02 75.58 206.02 79.88C206.02 84.21 209.07 86.89 214.01 86.89H215.53C220.44 86.88 223.52 84.2 223.52 79.88Z" fill="white"></path><path d="M255.19 75.7C255.71 76.98 255.98 78.41 255.98 79.88C255.98 81.37 255.71 82.78 255.19 84.09C254.67 85.43 253.88 86.62 252.87 87.6C250.74 89.67 247.72 90.77 244.12 90.77H242.6C239 90.77 235.99 89.67 233.85 87.6C232.84 86.62 232.05 85.44 231.5 84.09C231.01 82.78 230.74 81.38 230.74 79.88C230.74 78.42 231.01 76.98 231.5 75.7C232.05 74.36 232.84 73.17 233.85 72.16C235.98 70.09 239 68.99 242.6 68.99H244.12C247.72 68.99 250.73 70.09 252.87 72.16C253.88 73.17 254.67 74.36 255.19 75.7ZM252.11 79.88C252.11 75.58 249.03 72.87 244.12 72.87H242.6C237.66 72.87 234.62 75.58 234.62 79.88C234.62 84.21 237.67 86.89 242.6 86.89H244.12C249.03 86.88 252.11 84.2 252.11 79.88Z" fill="white"></path><path d="M279.62 88.81C279.62 89.91 278.74 90.76 277.67 90.76H261.24C260.17 90.76 259.32 89.91 259.32 88.81V70.95C259.32 69.88 260.17 69 261.24 69C262.31 69 263.19 69.88 263.19 70.95V86.89H277.67C278.74 86.88 279.62 87.74 279.62 88.81Z" fill="white"></path><defs><linearGradient id="paint0_linear_2_2" x1="15.1732" y1="63.9822" x2="91.1611" y2="68.5725" gradientUnits="userSpaceOnUse"><stop stop-color="#7C13CD"></stop><stop offset="1" stop-color="#532BFF"></stop></linearGradient></defs></svg>